<svg width="986" height="205" viewBox="0 0 986 205" fill="none" xmlns="http://www.w3.org/2000/svg">
<path fill-rule="evenodd" clip-rule="evenodd" d="M143.588 2.99986L174.134 56.4558L143.588 43.7282L113.042 56.4558L143.588 2.99986ZM124.302 46.5155L143.588 38.4797L162.874 46.5155L143.588 12.7649L124.302 46.5155Z" fill="black" stroke="black" stroke-width="2.5"/>
<path fill-rule="evenodd" clip-rule="evenodd" d="M143.588 69.0077L187.399 83.3723L215.748 129.046L143.242 114.173L70.6396 129.065L99.7918 83.367L143.588 69.0077ZM102.946 87.4316L80.8815 122.019L143.242 109.227L205.697 122.038L184.213 87.4263L143.588 74.1063L102.946 87.4316Z" fill="black" stroke="black" stroke-width="2.5"/>
<path fill-rule="evenodd" clip-rule="evenodd" d="M143.589 136.199L230.255 157.337L258.597 203L143.589 181.3L28.5811 203L56.9234 157.337L143.589 136.199ZM59.9954 161.575L38.5057 196.197L143.589 176.37L248.673 196.197L227.183 161.575L143.589 141.186L59.9954 161.575Z" fill="black" stroke="black" stroke-width="2.5"/>
<path d="M332.001 52.969C336.088 52.969 339.787 53.7864 343.097 55.4213C346.408 57.0562 349.044 59.4268 351.006 62.5331C352.968 65.6393 353.949 69.3996 353.949 73.8138C353.949 76.8383 353.438 79.6994 352.416 82.3969C351.435 85.0536 350.025 87.4037 348.186 89.4473C346.347 91.491 344.14 93.085 341.565 94.2294C338.99 95.3738 336.108 95.946 332.92 95.946C331.04 95.946 329.038 95.8643 326.912 95.7008C324.828 95.5782 322.784 95.3738 320.781 95.0877C318.779 94.8425 316.939 94.5564 315.264 94.2294V54.6856C317.879 54.236 320.638 53.8477 323.54 53.5208C326.483 53.1529 329.303 52.969 332.001 52.969ZM332.369 63.6979C331.429 63.6979 330.448 63.7797 329.426 63.9432C328.445 64.0658 327.546 64.2293 326.728 64.4336V84.4814C327.668 84.7675 328.629 84.9719 329.61 85.0945C330.591 85.1762 331.51 85.2171 332.369 85.2171C334.453 85.2171 336.211 84.7471 337.641 83.807C339.112 82.8261 340.236 81.5182 341.013 79.8833C341.79 78.2484 342.178 76.4296 342.178 74.4268C342.178 71.2388 341.32 68.6639 339.603 66.702C337.927 64.6993 335.516 63.6979 332.369 63.6979Z" fill="black"/>
<path d="M452.471 69.9514V78.5345H436.163V85.2171H454.617V95.0264H424.698V53.9499H454.617V63.4527H436.163V69.9514H452.471Z" fill="black"/>
<path d="M539.283 53.9499V84.9105H557.737V95.0264H527.818V53.9499H539.283Z" fill="black"/>
<path d="M661.347 53.9499V64.0658H649.27V94.8425H637.805V64.0658H625.727V53.9499H661.347Z" fill="black"/>
<path d="M747.362 53.3368L766.368 95.0264H753.003L750.979 89.5087H737.982L735.959 95.0264H722.594L741.599 53.3368H747.362ZM744.481 71.8519L741.354 80.3124H747.607L744.481 71.8519Z" fill="black"/>
<path d="M851.892 74.3042V83.5005H833.439V74.3042H851.892Z" fill="black"/>
<path d="M955.176 52.969L941.381 72.8328L955.176 94.0455H941.075L933.534 81.7838L925.993 94.0455H911.892L926.299 73.7525L911.892 52.969H925.993L934.147 65.4145L941.075 52.969H955.176Z" fill="black" stroke="black" stroke-width="2.81582"/>
<path d="M335.874 124.141L335.604 127.651L330.384 127.381H327.954L327.729 143.536L327.954 152.626H323.274L323.544 143.941L323.319 127.381H320.889L315.579 127.651L315.264 127.246L315.624 123.736H335.604L335.874 124.141Z" fill="black"/>
<path d="M360.159 131.476C362.229 131.476 363.864 131.971 365.064 132.961C366.264 133.951 366.864 135.331 366.864 137.101C366.864 137.641 366.774 139.441 366.594 142.501C366.414 145.501 366.324 147.256 366.324 147.766C366.324 148.336 366.414 148.741 366.594 148.981C366.804 149.191 367.149 149.296 367.629 149.296C367.929 149.296 368.379 149.236 368.979 149.116L369.384 149.431L368.934 151.951C368.064 152.491 367.119 152.821 366.099 152.941C365.169 152.851 364.419 152.521 363.849 151.951C363.279 151.351 362.934 150.571 362.814 149.611H362.499C360.969 151.231 359.409 152.356 357.819 152.986C355.749 152.956 354.114 152.416 352.914 151.366C351.745 150.316 351.16 148.891 351.16 147.091C351.16 144.421 352.614 142.756 355.524 142.096L362.634 140.521L362.679 138.091C362.679 136.981 362.394 136.141 361.824 135.571C361.284 135.001 360.489 134.716 359.439 134.716C358.419 134.716 357.399 134.956 356.379 135.436C355.359 135.886 354.234 136.606 353.004 137.596L352.645 137.371L352.06 134.176C354.699 132.376 357.399 131.476 360.159 131.476ZM356.784 144.571C356.244 144.691 355.854 144.901 355.614 145.201C355.374 145.471 355.254 145.906 355.254 146.506C355.254 147.406 355.494 148.111 355.974 148.621C356.484 149.131 357.159 149.386 357.999 149.386C359.409 149.386 360.909 148.471 362.499 146.641L362.634 143.176L356.784 144.571Z" fill="black"/>
<path d="M394.077 143.491L394.392 152.626H389.802L390.117 143.896L389.847 121.396L394.437 121.036L394.077 143.491Z" fill="black"/>
<path d="M432.053 142.456L419.408 142.501C419.438 144.781 419.993 146.521 421.073 147.721C422.153 148.891 423.683 149.476 425.663 149.476C427.733 149.476 429.758 148.861 431.738 147.631L432.188 147.901L431.513 151.591C429.323 152.551 427.193 153.031 425.123 153.031C422.033 153.031 419.603 152.086 417.833 150.196C416.093 148.276 415.223 145.666 415.223 142.366C415.223 139.036 416.093 136.396 417.833 134.446C419.573 132.496 421.928 131.521 424.898 131.521C427.418 131.521 429.353 132.211 430.703 133.591C432.083 134.971 432.773 136.921 432.773 139.441C432.773 140.131 432.698 140.956 432.548 141.916L432.053 142.456ZM428.633 138.901C428.633 137.491 428.303 136.426 427.643 135.706C427.013 134.986 426.083 134.626 424.853 134.626C423.473 134.626 422.333 135.076 421.433 135.976C420.533 136.846 419.933 138.091 419.633 139.711L428.543 139.531L428.633 138.901Z" fill="black"/>
<path d="M466.426 138.991C466.456 137.851 466.186 136.966 465.616 136.336C465.076 135.676 464.281 135.346 463.231 135.346C461.491 135.346 459.691 136.246 457.831 138.046L457.786 143.536L458.056 152.626H453.466L453.736 143.941L453.511 132.196L457.876 131.791L457.831 134.806H458.146C459.916 133.246 461.761 132.181 463.681 131.611C465.991 131.611 467.731 132.136 468.901 133.186C470.101 134.236 470.686 135.736 470.656 137.686L470.521 143.536L470.746 152.626H466.111L466.426 138.991Z" fill="black"/>
<path d="M499.972 149.161C500.962 149.161 502.012 148.891 503.122 148.351L503.572 148.666L503.122 151.546C501.472 152.326 499.942 152.776 498.532 152.896C496.672 152.596 495.322 151.981 494.482 151.051C493.642 150.091 493.222 148.711 493.222 146.911L493.402 143.671L493.357 134.896H490.522L490.342 134.626L490.567 131.971H493.312V128.686L497.362 127.156L497.767 127.516L497.677 131.971H503.437L503.617 132.286L503.392 134.896H497.587L497.362 146.191C497.332 147.301 497.512 148.081 497.902 148.531C498.322 148.951 499.012 149.161 499.972 149.161Z" fill="black"/>
<path d="M529.364 131.521C531.164 131.521 532.919 131.866 534.629 132.556L533.999 136.156L533.414 136.291C531.854 135.241 530.324 134.716 528.824 134.716C527.924 134.716 527.204 134.956 526.664 135.436C526.154 135.916 525.899 136.501 525.899 137.191C525.899 137.941 526.199 138.541 526.799 138.991C527.429 139.441 528.389 139.936 529.679 140.476C530.849 140.986 531.794 141.466 532.514 141.916C533.264 142.366 533.894 142.966 534.404 143.716C534.944 144.466 535.214 145.396 535.214 146.506C535.214 147.646 534.914 148.726 534.314 149.746C533.714 150.736 532.829 151.531 531.659 152.131C530.489 152.731 529.079 153.031 527.429 153.031C525.359 153.031 523.259 152.566 521.129 151.636L521.669 147.811L522.164 147.496C523.034 148.246 523.994 148.846 525.044 149.296C526.094 149.716 527.054 149.926 527.924 149.926C528.884 149.926 529.649 149.671 530.219 149.161C530.819 148.621 531.119 147.991 531.119 147.271C531.119 146.521 530.819 145.936 530.219 145.516C529.619 145.066 528.674 144.541 527.384 143.941C526.214 143.431 525.254 142.951 524.504 142.501C523.754 142.051 523.109 141.436 522.569 140.656C522.059 139.876 521.804 138.916 521.804 137.776C521.804 135.946 522.479 134.446 523.829 133.276C525.179 132.106 527.024 131.521 529.364 131.521Z" fill="black"/>
<path d="M586.88 131.476C589.79 131.476 592.025 132.391 593.585 134.221C595.175 136.021 595.97 138.586 595.97 141.916C595.97 145.486 595.13 148.231 593.45 150.151C591.77 152.071 589.385 153.031 586.295 153.031C583.385 153.031 581.135 152.131 579.545 150.331C577.985 148.501 577.205 145.921 577.205 142.591C577.205 139.021 578.045 136.276 579.725 134.356C581.405 132.436 583.79 131.476 586.88 131.476ZM586.61 134.671C583.19 134.671 581.48 136.981 581.48 141.601C581.48 144.421 581.9 146.506 582.74 147.856C583.58 149.206 584.87 149.881 586.61 149.881C588.32 149.881 589.595 149.311 590.435 148.171C591.275 147.031 591.695 145.291 591.695 142.951C591.695 140.131 591.275 138.046 590.435 136.696C589.595 135.346 588.32 134.671 586.61 134.671Z" fill="black"/>
<path d="M625.384 120.946C626.554 120.946 627.769 121.081 629.029 121.351L628.759 124.816L628.444 125.086C627.154 124.516 625.999 124.231 624.979 124.231C623.899 124.231 623.074 124.561 622.504 125.221C621.934 125.851 621.634 126.811 621.604 128.101L621.559 131.971H626.869L627.004 132.286L626.734 134.896H621.514L621.379 143.491L621.694 152.626H617.104L617.374 143.896L617.284 134.896H614.179L613.999 134.626L614.224 131.971H617.284L617.239 128.866C617.209 126.316 617.899 124.366 619.309 123.016C620.749 121.636 622.774 120.946 625.384 120.946Z" fill="black"/>
<path d="M686.881 124.141L686.611 127.651L681.391 127.381H678.961L678.736 143.536L678.961 152.626H674.281L674.551 143.941L674.326 127.381H671.896L666.586 127.651L666.271 127.246L666.631 123.736H686.611L686.881 124.141Z" fill="black"/>
<path d="M711.842 131.476C714.752 131.476 716.987 132.391 718.547 134.221C720.137 136.021 720.932 138.586 720.932 141.916C720.932 145.486 720.092 148.231 718.412 150.151C716.732 152.071 714.347 153.031 711.257 153.031C708.347 153.031 706.097 152.131 704.507 150.331C702.947 148.501 702.167 145.921 702.167 142.591C702.167 139.021 703.007 136.276 704.687 134.356C706.367 132.436 708.752 131.476 711.842 131.476ZM711.572 134.671C708.152 134.671 706.442 136.981 706.442 141.601C706.442 144.421 706.862 146.506 707.702 147.856C708.542 149.206 709.832 149.881 711.572 149.881C713.282 149.881 714.557 149.311 715.397 148.171C716.237 147.031 716.657 145.291 716.657 142.951C716.657 140.131 716.237 138.046 715.397 136.696C714.557 135.346 713.282 134.671 711.572 134.671Z" fill="black"/>
<path d="M766.939 138.991C766.969 137.851 766.699 136.966 766.129 136.336C765.589 135.676 764.794 135.346 763.744 135.346C762.034 135.346 760.264 136.216 758.434 137.956L758.344 143.536L758.569 152.626H753.934L754.249 138.991C754.279 137.851 754.009 136.966 753.439 136.336C752.899 135.676 752.104 135.346 751.054 135.346C749.314 135.346 747.514 136.246 745.654 138.046L745.609 143.536L745.879 152.626H741.289L741.559 143.941L741.334 132.196L745.699 131.791L745.654 134.806H745.969C747.739 133.246 749.584 132.181 751.504 131.611C753.184 131.611 754.564 131.911 755.644 132.511C756.754 133.081 757.534 133.906 757.984 134.986H758.254C760.084 133.396 762.064 132.271 764.194 131.611C766.504 131.611 768.244 132.136 769.414 133.186C770.614 134.236 771.199 135.736 771.169 137.686L771.034 143.536L771.259 152.626H766.669L766.939 138.991Z" fill="black"/>
<path d="M801.262 131.476C804.172 131.476 806.407 132.391 807.967 134.221C809.557 136.021 810.352 138.586 810.352 141.916C810.352 145.486 809.512 148.231 807.832 150.151C806.152 152.071 803.767 153.031 800.677 153.031C797.767 153.031 795.517 152.131 793.927 150.331C792.367 148.501 791.587 145.921 791.587 142.591C791.587 139.021 792.427 136.276 794.107 134.356C795.787 132.436 798.172 131.476 801.262 131.476ZM800.992 134.671C797.572 134.671 795.862 136.981 795.862 141.601C795.862 144.421 796.282 146.506 797.122 147.856C797.962 149.206 799.252 149.881 800.992 149.881C802.702 149.881 803.977 149.311 804.817 148.171C805.657 147.031 806.077 145.291 806.077 142.951C806.077 140.131 805.657 138.046 804.817 136.696C803.977 135.346 802.702 134.671 800.992 134.671Z" fill="black"/>
<path d="M841.059 131.836C841.389 131.836 841.764 131.866 842.184 131.926V136.291L841.689 136.426C841.209 136.276 840.654 136.201 840.024 136.201C839.094 136.201 838.224 136.546 837.414 137.236C836.604 137.926 835.824 139.036 835.074 140.566L835.029 143.536L835.299 152.626H830.709L831.024 143.941L830.754 132.196L835.119 131.791L835.074 135.931H835.389C836.199 134.491 837.099 133.456 838.089 132.826C839.079 132.166 840.069 131.836 841.059 131.836Z" fill="black"/>
<path d="M871.838 131.836C872.168 131.836 872.543 131.866 872.963 131.926V136.291L872.468 136.426C871.988 136.276 871.433 136.201 870.803 136.201C869.873 136.201 869.003 136.546 868.193 137.236C867.383 137.926 866.603 139.036 865.853 140.566L865.808 143.536L866.078 152.626H861.488L861.803 143.941L861.533 132.196L865.898 131.791L865.853 135.931H866.168C866.978 134.491 867.878 133.456 868.868 132.826C869.858 132.166 870.848 131.836 871.838 131.836Z" fill="black"/>
<path d="M900.367 131.476C903.277 131.476 905.512 132.391 907.072 134.221C908.662 136.021 909.457 138.586 909.457 141.916C909.457 145.486 908.617 148.231 906.937 150.151C905.257 152.071 902.872 153.031 899.782 153.031C896.872 153.031 894.622 152.131 893.032 150.331C891.472 148.501 890.692 145.921 890.692 142.591C890.692 139.021 891.532 136.276 893.212 134.356C894.892 132.436 897.277 131.476 900.367 131.476ZM900.097 134.671C896.677 134.671 894.967 136.981 894.967 141.601C894.967 144.421 895.387 146.506 896.227 147.856C897.067 149.206 898.357 149.881 900.097 149.881C901.807 149.881 903.082 149.311 903.922 148.171C904.762 147.031 905.182 145.291 905.182 142.951C905.182 140.131 904.762 138.046 903.922 136.696C903.082 135.346 901.807 134.671 900.097 134.671Z" fill="black"/>
<path d="M931.799 134.671L935.084 147.856H935.399L939.224 134.896L939.989 131.881H944.399L944.894 134.671L948.224 147.856H948.494L952.319 134.896L953.039 131.881H956.954L950.294 152.626H945.929L942.104 137.686H941.744L937.289 152.626H932.789L927.164 131.971L931.349 131.746L931.799 134.671Z" fill="black"/>
</svg>
